<svg id="Capa_1" enable-background="new 0 0 511.999 511.999" height="512" viewBox="0 0 511.999 511.999" width="512" xmlns="http://www.w3.org/2000/svg"><g><path d="m460.651 41.167h-409.303c-24.217 0-43.848 19.632-43.848 43.848v32.179l21.836 30h452.426l22.738-30v-32.179c-.001-24.216-19.632-43.848-43.849-43.848z" fill="#e27d47"/><path d="m460.651 41.167h-23.099c24.217 0 43.848 19.631 43.848 43.848v52.179l23.099-20v-32.179c0-24.216-19.631-43.848-43.848-43.848z" fill="#dd544f"/><path d="m460.651 470.832h-409.303c-24.217 0-43.848-19.632-43.848-43.848v-309.79h497v309.79c-.001 24.217-19.632 43.848-43.849 43.848z" fill="#ffe07d"/><path d="m481.4 117.194v309.79c0 24.217-19.632 43.848-43.848 43.848h23.099c24.217 0 43.848-19.632 43.848-43.848v-309.79z" fill="#ffd064"/><g><path d="m250.67 339.181-13.726 13.723-20.634 20.63 31.597 31.603 31.714 31.72c4.856 4.857 12.73 4.858 17.587.002l3.046-3.045c4.857-4.856 4.858-12.73.002-17.587l-21.721-21.725c-2.174-2.174-2.894-5.409-1.847-8.299l3.866-10.681c1.046-2.891.326-6.126-1.847-8.299z" fill="#365e7d"/><path d="m216.31 373.534 19.863 19.867 34.36-34.354-19.863-19.866-13.726 13.723z" fill="#2b4d66"/><path d="m274.549 329.735 92.884-38.295-126.151-126.174-38.311 92.877-4.846 20.856 51.141 51.151z" fill="#e27d47"/><path d="m274.549 329.735-57.367 57.357c-5.373 5.372-14.082 5.371-19.454-.002l-52.126-52.135c-5.372-5.373-5.371-14.082.002-19.454l57.367-57.357z" fill="#f6f1f1"/><path d="m224.613 249.18h16.573v101.236h-16.573z" fill="#dae4ea" transform="matrix(.707 -.707 .707 .707 -143.77 252.46)"/><path d="m234.352 182.067 116.279 116.3 16.802-6.927-126.151-126.174z" fill="#dd544f"/><path d="m175.064 397.119 16.348-16.345-39.496-39.503-16.348 16.345c-10.908 10.906-10.91 28.591-.004 39.499 10.908 10.909 28.592 10.91 39.5.004z" fill="#e27d47"/><path d="m196.496 306.267-13.106 13.103c-4.808 4.807-12.603 4.806-17.41-.002l-12.12-12.123 30.517-30.512 12.12 12.123c4.807 4.809 4.807 12.604-.001 17.411z" fill="#e27d47"/><path d="m173.705 287.404 12.121 12.123c4.807 4.808 4.806 12.603-.002 17.41l10.671-10.67c4.808-4.807 4.809-12.602.002-17.41l-12.121-12.123z" fill="#dd544f"/></g><g><path d="m58.735 71.681c-4.143 0-7.5 3.357-7.5 7.5s3.357 7.5 7.5 7.5h10.304c4.143 0 7.5-3.357 7.5-7.5s-3.357-7.5-7.5-7.5z"/><path d="m109.65 71.681c-4.143 0-7.5 3.357-7.5 7.5s3.357 7.5 7.5 7.5h10.305c4.143 0 7.5-3.357 7.5-7.5s-3.357-7.5-7.5-7.5z"/><path d="m170.871 86.681c4.143 0 7.5-3.357 7.5-7.5s-3.357-7.5-7.5-7.5h-10.305c-4.143 0-7.5 3.357-7.5 7.5s3.357 7.5 7.5 7.5z"/><path d="m368.073 302.688c2.928 2.928 7.677 2.931 10.606.001 2.93-2.929 2.93-7.678.001-10.606l-138.037-138.064c-2.929-2.93-7.678-2.929-10.606-.001-2.93 2.929-2.93 7.678-.001 10.606l2.406 2.406-16.677 40.43c-2.94-2.247-7.158-2.034-9.846.654-2.93 2.929-2.93 7.678-.001 10.606l3.683 3.683-12.993 31.497-56.307 56.296c-8.289 8.287-8.29 21.772-.003 30.061l1.013 1.013-5.302 5.301-.019-.019c-2.929-2.929-7.678-2.93-10.606-.001-2.93 2.929-2.93 7.678-.001 10.606l.497.497c-9.224 13.763-7.766 32.613 4.383 44.764 6.908 6.909 15.98 10.363 25.056 10.363 6.885 0 13.768-1.994 19.707-5.973l.497.497c1.465 1.465 3.384 2.197 5.304 2.197 1.919 0 3.839-.732 5.303-2.196 2.93-2.929 2.93-7.678.001-10.606l-.019-.019 5.302-5.301 1.012 1.013c4.145 4.146 9.587 6.218 15.032 6.218 5.441 0 10.885-2.072 15.028-6.215l1.039-1.039 19.835 19.838c2.922 2.924 7.671 2.935 10.606.001 2.929-2.928 2.93-7.677.001-10.606l-19.835-19.839 23.752-23.748 15.518 15.522c.116.115.154.29.099.443l-3.866 10.682c-2.027 5.602-.615 11.942 3.597 16.154l21.722 21.726c1.924 1.925 1.924 5.056-.001 6.98l-3.046 3.045c-1.924 1.924-5.057 1.924-6.98-.002l-9.757-9.758c-2.93-2.928-7.678-2.928-10.607 0-2.929 2.93-2.929 7.678 0 10.607l9.757 9.757c7.769 7.771 20.419 7.778 28.193.003l3.046-3.045c7.773-7.772 7.775-20.42.003-28.193l-21.722-21.727c-.116-.115-.154-.289-.099-.442l3.866-10.683c2.026-5.602.615-11.943-3.597-16.154l-15.518-15.521 10.302-10.3 31.496-12.985 3.684 3.684c2.928 2.928 7.677 2.931 10.606.001 2.689-2.688 2.903-6.907.656-9.847l40.432-16.669zm-176.88-1.726c-.001.001-.001.001 0 0l-13.107 13.104c-1.884 1.884-4.925 1.877-6.803-.001l-6.817-6.818 19.91-19.906 6.817 6.82c1.884 1.882 1.877 4.924 0 6.801zm-50.324 90.85c-3.858-3.859-5.983-8.99-5.982-14.447 0-3.072.696-6.031 1.974-8.727l27.175 27.18c-7.58 3.571-16.911 2.252-23.167-4.006zm39.937-11.04-5.302 5.301-28.89-28.895 5.302-5.301c10.104 10.106 18.785 18.789 28.89 28.895zm22.225 1.015c-14.239-14.241-43.91-43.919-52.126-52.136-2.438-2.439-2.438-6.408.001-8.848l2.952-2.951 6.818 6.819c7.733 7.735 20.275 7.747 28.017.003l13.105-13.104c7.743-7.741 7.746-20.273.003-28.016l-6.818-6.819 7.987-7.985 60.973 60.983-45.711 45.703c-.004.004-.008.007-.011.01s-.006.008-.01.011l-6.332 6.331c-2.441 2.44-6.409 2.438-8.848-.001zm73.284-60.893c-7.667-7.669-56.807-56.817-64.504-64.515l9.275-22.485 77.715 77.73zm37.507-15.464-86.54-86.556 16.646-40.354 110.252 110.272z"/><path d="m344.297 177.779-20.095 20.095c-2.929 2.93-2.929 7.678 0 10.607 2.931 2.929 7.678 2.928 10.607 0l20.095-20.095c2.929-2.93 2.929-7.678 0-10.607-2.929-2.927-7.677-2.927-10.607 0z"/><path d="m297.716 175.944v-28.418c0-4.143-3.357-7.5-7.5-7.5s-7.5 3.357-7.5 7.5v28.418c0 4.143 3.357 7.5 7.5 7.5s7.5-3.357 7.5-7.5z"/><path d="m348.694 242.693c0 4.143 3.357 7.5 7.5 7.5h28.418c4.143 0 7.5-3.357 7.5-7.5s-3.357-7.5-7.5-7.5h-28.418c-4.142 0-7.5 3.358-7.5 7.5z"/><path d="m122.303 175.944c0-4.143-3.357-7.5-7.5-7.5h-64.159c-4.143 0-7.5 3.357-7.5 7.5s3.357 7.5 7.5 7.5h64.159c4.142 0 7.5-3.357 7.5-7.5z"/><path d="m50.644 205.918c-4.143 0-7.5 3.357-7.5 7.5s3.357 7.5 7.5 7.5h44.159c4.143 0 7.5-3.357 7.5-7.5s-3.357-7.5-7.5-7.5z"/><path d="m456.049 365.523h-106.448c-4.143 0-7.5 3.357-7.5 7.5s3.357 7.5 7.5 7.5h106.448c4.143 0 7.5-3.357 7.5-7.5s-3.358-7.5-7.5-7.5z"/><path d="m456.049 398.567h-66.448c-4.143 0-7.5 3.357-7.5 7.5s3.357 7.5 7.5 7.5h66.448c4.143 0 7.5-3.357 7.5-7.5s-3.358-7.5-7.5-7.5z"/><path d="m460.651 33.667h-299.978c-4.143 0-7.5 3.357-7.5 7.5s3.357 7.5 7.5 7.5h299.979c20.042 0 36.348 16.306 36.348 36.349v24.679h-482v-24.679c0-20.043 16.306-36.349 36.348-36.349h79.338c4.143 0 7.5-3.357 7.5-7.5s-3.357-7.5-7.5-7.5h-79.338c-28.314 0-51.348 23.035-51.348 51.349v341.969c0 28.313 23.034 51.348 51.348 51.348h409.304c28.313 0 51.348-23.034 51.348-51.348v-18.59c0-4.143-3.357-7.5-7.5-7.5s-7.5 3.357-7.5 7.5v18.59c0 20.042-16.306 36.348-36.348 36.348h-409.304c-20.042-.001-36.348-16.307-36.348-36.349v-302.29h481.999v253.713c0 4.143 3.357 7.5 7.5 7.5s7.5-3.357 7.5-7.5v-293.391c0-28.314-23.034-51.349-51.348-51.349z"/></g></g></svg>