<svg id="Filled_expand" height="512" viewBox="0 0 512 512" width="512" xmlns="http://www.w3.org/2000/svg" data-name="Filled expand"><g><circle cx="256" cy="256" fill="#57cee6" r="208"/><path d="m194.459 65.645-4.918-15.226a217.421 217.421 0 0 1 116.3-4.639l-3.678 15.572a201.407 201.407 0 0 0 -107.7 4.293z"/><path d="m50.419 322.459a217.168 217.168 0 0 1 0-132.918l15.226 4.918a201.157 201.157 0 0 0 0 123.082z"/><path d="m256 472a215.876 215.876 0 0 1 -66.459-10.419l4.918-15.226a201.281 201.281 0 0 0 115.392 2.313l4.3 15.413a216.478 216.478 0 0 1 -58.151 7.919z"/><path d="m463.692 315.524-15.383-4.4a200.337 200.337 0 0 0 7.691-55.124 198.266 198.266 0 0 0 -18.725-84.611l14.494-6.778a214.164 214.164 0 0 1 20.231 91.389 216.338 216.338 0 0 1 -8.308 59.524z"/><circle cx="256" cy="256" fill="#ecfbf9" r="176"/><path d="m84.546 322.91a184.907 184.907 0 0 1 -5.619-117.087l15.4 4.354a168.909 168.909 0 0 0 5.123 106.913z"/><path d="m256 440a183.166 183.166 0 0 1 -66.91-12.546l5.82-14.9a168.909 168.909 0 0 0 106.913 5.127l4.354 15.4a184.361 184.361 0 0 1 -50.177 6.919z"/><path d="m433.073 306.177-15.4-4.354a168.345 168.345 0 0 0 6.327-45.823 166.614 166.614 0 0 0 -15.269-70.082l14.538-6.683a182.512 182.512 0 0 1 16.731 76.765 184.361 184.361 0 0 1 -6.927 50.177z"/><path d="m301.823 94.323a169.2 169.2 0 0 0 -91.646 0l-4.354-15.4a185.2 185.2 0 0 1 100.354 0z"/><g><path d="m168 224h48v96h-48z" fill="#57cee6"/><path d="m344 228a19.989 19.989 0 0 0 -13.3-18.826 9.955 9.955 0 0 0 -4.7-1.174h-38v-26a30 30 0 0 0 -30-30h-18v56l-24 16v88l24 8h86a9.955 9.955 0 0 0 4.7-1.174 19.989 19.989 0 0 0 13.3-18.826 19.948 19.948 0 0 0 -8-15.973v-.054a19.948 19.948 0 0 0 8-15.973 19.948 19.948 0 0 0 -8-15.973v-8.054a19.948 19.948 0 0 0 8-15.973z" fill="#ffd4cf"/><path d="m344 248.424v-.848a27.707 27.707 0 0 0 8-19.576 28.048 28.048 0 0 0 -18.1-26.172 18.049 18.049 0 0 0 -7.9-1.828h-30v-18a38.043 38.043 0 0 0 -38-38h-18a8 8 0 0 0 -8 8v51.719l-18.422 12.281h-45.578a8 8 0 0 0 -8 8v96a8 8 0 0 0 8 8h48a8 8 0 0 0 7.452-5.083l14.018 4.672a8 8 0 0 0 2.53.411h86a18.045 18.045 0 0 0 7.9-1.828 28.048 28.048 0 0 0 18.1-26.172 27.731 27.731 0 0 0 -5.017-16 27.982 27.982 0 0 0 -2.983-35.576zm-168 63.576v-80h32v80zm155.19-53.581a11.947 11.947 0 0 1 0 19.162 8.1 8.1 0 0 0 -3.19 6.446 8 8 0 0 0 3.19 6.392 11.963 11.963 0 0 1 -3.175 20.871 8.078 8.078 0 0 0 -1.082.477 1.953 1.953 0 0 1 -.933.233h-84.7l-17.3-5.766v-77.953l20.438-13.625a8 8 0 0 0 3.562-6.656v-48h10a22.025 22.025 0 0 1 22 22v26a8 8 0 0 0 8 8h38a1.975 1.975 0 0 1 .935.233 7.886 7.886 0 0 0 1.081.477 11.963 11.963 0 0 1 3.174 20.871 8 8 0 0 0 -3.19 6.392v8.054a8 8 0 0 0 3.19 6.392z"/><path d="m184 280h16v16h-16z"/></g><circle cx="104" cy="104" fill="#fac850" r="80"/><circle cx="104" cy="104" fill="#fff" r="56"/><path d="m104 192a88 88 0 1 1 88-88 88.1 88.1 0 0 1 -88 88zm0-160a72 72 0 1 0 72 72 72.081 72.081 0 0 0 -72-72z"/><g><path d="m328 24v120h40v40h16l32-40h56l16-16v-104z" fill="#c85aed"/><path d="m384 192h-16a8 8 0 0 1 -8-8v-32h-32a8 8 0 0 1 -8-8v-120a8 8 0 0 1 8-8h160a8 8 0 0 1 8 8v16h-16v-8h-144v104h32a8 8 0 0 1 8 8v32h4.155l29.6-37a8 8 0 0 1 6.245-3h52.686l11.314-11.314v-68.686h16v72a8 8 0 0 1 -2.343 5.657l-16 16a8 8 0 0 1 -5.657 2.343h-52.155l-29.6 37a8 8 0 0 1 -6.245 3z"/><path d="m384 64h16v40h-16z"/><path d="m416 64h16v40h-16z"/></g><path d="m116 72h12v-16h-12a28.032 28.032 0 0 0 -28 28v4h-8v16h8v48h16v-48h16v-16h-16v-4a12.013 12.013 0 0 1 12-12z"/><g><rect fill="#c85aed" height="144" rx="30" width="144" x="24" y="344"/><path d="m138 496h-84a38.043 38.043 0 0 1 -38-38v-34h16v34a22.025 22.025 0 0 0 22 22h84a22.025 22.025 0 0 0 22-22v-84a22.025 22.025 0 0 0 -22-22h-84a22.025 22.025 0 0 0 -22 22v34h-16v-34a38.043 38.043 0 0 1 38-38h84a38.043 38.043 0 0 1 38 38v84a38.043 38.043 0 0 1 -38 38z"/><g><circle cx="96" cy="416" fill="#f5f1ff" r="32"/><path d="m96 456a40 40 0 1 1 40-40 40.045 40.045 0 0 1 -40 40zm0-64a24 24 0 1 0 24 24 24.028 24.028 0 0 0 -24-24z"/><path d="m128 368h16v16h-16z"/></g></g><g><circle cx="408" cy="408" fill="#fac850" r="80"/><path d="m408 496a88 88 0 1 1 88-88 88.1 88.1 0 0 1 -88 88zm0-160a72 72 0 1 0 72 72 72.081 72.081 0 0 0 -72-72z"/><path d="m384 440v-64l64 32z" fill="#fffdfa"/><path d="m384 448a8 8 0 0 1 -8-8v-64a8 8 0 0 1 11.578-7.155l64 32a8 8 0 0 1 0 14.31l-64 32a7.99 7.99 0 0 1 -3.578.845zm8-59.056v38.112l38.111-19.056z"/></g></g></svg>