<?xml version="1.0" standalone="no"?>
<!DOCTYPE svg PUBLIC "-//W3C//DTD SVG 20010904//EN"
 "http://www.w3.org/TR/2001/REC-SVG-20010904/DTD/svg10.dtd">
<svg version="1.0" xmlns="http://www.w3.org/2000/svg"
 width="900.000000pt" height="844.000000pt" viewBox="0 0 900.000000 844.000000"
 preserveAspectRatio="xMidYMid meet">
<metadata>
Created by potrace 1.16, written by Peter Selinger 2001-2019
</metadata>
<g transform="translate(0.000000,844.000000) scale(0.100000,-0.100000)"
fill="#000000" stroke="none">
<path d="M1251 6858 c-61 -107 -595 -1030 -686 -1187 l-43 -74 30 -51 c17 -28
101 -172 186 -321 86 -148 221 -382 300 -520 80 -137 175 -303 211 -367 l66
-117 796 -1 797 0 42 73 c24 39 57 97 75 127 18 30 44 75 57 100 14 25 49 86
78 135 29 50 69 119 90 155 152 259 450 781 450 786 0 4 -13 28 -29 53 -15 25
-64 109 -108 186 -45 77 -146 253 -225 390 -80 138 -209 361 -287 498 l-143
247 -797 0 -796 0 -64 -112z m492 -580 c57 -73 161 -207 231 -298 70 -91 132
-165 137 -165 5 0 112 133 237 295 l229 295 141 3 c78 1 142 -1 142 -5 0 -5
-77 -107 -171 -228 -366 -471 -429 -554 -429 -560 0 -3 93 -126 207 -273 352
-455 368 -476 397 -514 l28 -38 -143 0 -144 0 -244 315 c-134 173 -247 315
-250 315 -4 0 -74 -87 -156 -192 -82 -106 -192 -248 -244 -315 l-94 -123 -145
0 -144 0 29 38 c15 21 156 204 313 406 157 202 286 373 287 379 2 7 -106 152
-238 322 -313 403 -359 463 -359 469 0 3 63 6 139 6 l140 0 104 -132z m-148
-520 c32 -14 55 -56 55 -99 0 -22 -10 -41 -34 -65 l-33 -33 33 -61 c19 -33 34
-63 34 -65 0 -3 -15 -5 -33 -5 -30 0 -35 5 -65 65 -30 62 -34 65 -67 65 l-35
0 0 -65 c0 -63 -1 -65 -25 -65 l-25 0 0 170 0 170 85 0 c46 0 96 -5 110 -12z
m1164 -4 c56 -40 59 -127 5 -170 l-26 -21 31 -61 c17 -34 31 -64 31 -67 0 -3
-14 -5 -30 -5 -27 0 -33 7 -62 65 -30 60 -35 65 -65 65 l-33 0 0 -65 0 -65
-30 0 -30 0 0 170 0 170 93 0 c69 0 98 -4 116 -16z"/>
<path d="M6052 4153 c-22 -38 -74 -129 -117 -203 -366 -636 -589 -1021 -613
-1060 -12 -19 -22 -40 -22 -46 0 -6 39 -78 86 -160 76 -131 157 -272 369 -639
61 -106 174 -302 260 -450 29 -49 58 -100 64 -113 l12 -22 796 2 797 3 70 120
c38 66 86 150 108 188 21 37 55 97 77 135 21 37 71 123 111 192 40 69 90 154
110 190 20 36 88 153 150 260 63 107 125 216 139 242 l26 48 -19 32 c-11 18
-36 62 -56 98 -40 71 -191 332 -370 640 -62 107 -130 224 -150 260 -20 36 -74
129 -119 208 l-83 142 -793 0 -794 0 -39 -67z m888 -423 c0 -67 1 -70 24 -70
13 0 37 -3 54 -6 30 -6 30 -5 42 49 18 77 18 77 73 64 53 -12 54 -15 33 -94
l-14 -52 54 -22 c30 -12 56 -20 58 -18 2 2 18 28 36 56 31 52 32 52 58 39 69
-37 70 -38 34 -96 -18 -28 -32 -54 -31 -58 0 -4 22 -23 48 -44 l48 -36 46 46
47 46 35 -34 c19 -19 35 -37 35 -41 0 -5 -21 -28 -46 -52 l-47 -44 23 -31 c13
-18 28 -32 33 -32 5 0 33 14 62 30 l53 30 26 -46 c30 -53 28 -56 -46 -90 -21
-9 -38 -22 -38 -28 0 -6 10 -34 22 -64 16 -37 26 -51 37 -47 36 14 105 25 112
18 4 -4 10 -28 14 -53 l7 -46 -61 -12 c-58 -12 -61 -14 -61 -42 0 -55 7 -60
76 -60 l64 0 0 -55 0 -55 -64 0 c-68 0 -76 -6 -76 -55 0 -24 17 -33 93 -49 30
-7 33 -20 17 -77 l-10 -36 -58 13 c-31 8 -60 14 -63 14 -5 0 -49 -103 -49
-115 0 -2 25 -17 55 -34 55 -31 55 -31 41 -59 -36 -68 -37 -69 -99 -33 l-55
31 -21 -29 c-12 -16 -21 -33 -21 -37 0 -5 19 -27 41 -50 l41 -42 -32 -41 -33
-40 -50 44 -50 44 -46 -37 c-25 -20 -48 -37 -50 -39 -2 -1 11 -25 28 -53 17
-28 31 -54 31 -58 0 -7 -73 -52 -85 -52 -3 0 -19 23 -36 50 -17 28 -35 50 -40
50 -8 0 -67 -27 -77 -35 -1 -1 5 -21 13 -45 23 -66 20 -78 -22 -89 -58 -17
-61 -15 -79 45 l-16 56 -61 -7 c-34 -3 -65 -9 -69 -11 -4 -3 -8 -32 -8 -65 l0
-59 -50 0 -50 0 0 59 c0 33 -3 62 -7 64 -5 3 -29 8 -55 11 l-47 7 -17 -60
c-18 -65 -19 -66 -78 -50 -42 12 -41 9 -21 106 7 29 5 33 -27 46 -74 31 -77
31 -96 -3 -9 -18 -24 -41 -33 -53 l-16 -20 -41 23 c-23 13 -42 28 -42 33 0 5
13 31 29 57 l30 48 -50 42 -49 41 -48 -45 -49 -46 -31 38 c-18 20 -32 39 -32
42 0 3 18 24 40 45 22 21 40 43 40 47 0 5 -10 22 -22 38 l-22 30 -53 -30 c-30
-17 -58 -28 -64 -25 -5 4 -18 24 -29 45 -22 43 -21 44 48 79 24 12 42 25 40
29 -2 4 -12 31 -22 60 -11 29 -25 52 -30 52 -6 0 -35 -7 -64 -14 -40 -11 -54
-12 -57 -3 -2 7 -8 29 -14 50 -11 42 -10 43 77 66 45 13 45 13 36 60 -6 31 -7
31 -70 31 l-64 0 0 55 0 55 64 0 c63 0 64 0 70 31 10 52 8 55 -51 69 -32 7
-61 15 -64 17 -8 3 10 84 21 96 6 7 75 -4 112 -18 11 -4 20 9 36 51 12 32 19
61 16 66 -3 5 -22 17 -42 28 -68 36 -67 33 -37 84 l27 46 58 -33 c58 -32 59
-32 75 -12 38 49 37 52 -10 91 -25 20 -45 42 -45 48 0 7 16 27 35 46 l35 34
47 -46 47 -47 48 41 48 40 -31 54 c-16 30 -27 58 -24 64 4 6 24 19 45 30 l39
20 31 -55 c17 -30 35 -55 40 -55 9 0 80 29 80 33 0 1 -9 30 -19 65 l-19 63 21
8 c12 5 36 11 53 15 30 7 31 6 49 -56 10 -35 19 -64 19 -64 1 -1 30 4 66 10
l65 12 3 67 3 67 49 0 50 0 0 -70z"/>
<path d="M6770 3466 c-253 -53 -446 -238 -505 -483 -25 -105 -17 -262 18 -363
54 -152 178 -291 322 -360 357 -172 763 -1 896 377 30 84 36 238 15 335 -52
236 -231 422 -465 484 -81 21 -205 26 -281 10z m264 -92 c141 -34 293 -158
355 -288 111 -232 64 -490 -121 -661 -182 -169 -450 -197 -666 -71 -121 72
-233 226 -261 364 -65 315 152 625 471 671 72 10 137 6 222 -15z"/>
</g>
</svg>
