<svg id="Capa_1" enable-background="new 0 0 512 512" height="512" viewBox="0 0 512 512" width="512" xmlns="http://www.w3.org/2000/svg"><g><g><g><circle cx="256" cy="322.267" fill="#a0c8ff" r="182.233"/><path d="m256 140.033c-3.864 0-7.696.135-11.5.372 95.285 5.936 170.733 85.081 170.733 181.862s-75.448 175.926-170.733 181.862c3.804.237 7.636.372 11.5.372 100.645 0 182.233-81.589 182.233-182.233s-81.588-182.235-182.233-182.235z" fill="#91b2fa"/></g><g><path d="m330.55 82.05c0-41.064-33.201-74.374-74.225-74.549-40.635-.174-74.258 32.776-74.867 73.407-.236 15.762 4.426 30.418 12.553 42.559l47.931 76.859c6.486 10.4 21.628 10.4 28.114 0l47.931-76.859c7.932-11.847 12.563-26.09 12.563-41.417z" fill="#fa8ebb"/><path d="m256.325 7.501c-3.992-.017-7.913.296-11.745.895 35.673 5.564 62.97 36.421 62.97 73.655 0 15.327-4.631 29.57-12.562 41.417l-47.931 76.859c-.745 1.195-1.609 2.246-2.557 3.167 7.299 7.089 19.817 6.038 25.557-3.167l47.931-76.859c7.931-11.847 12.562-26.09 12.562-41.417 0-41.065-33.201-74.375-74.225-74.55z" fill="#f57fb0"/><circle cx="256" cy="82.05" fill="#f9f5f3" r="24.85"/><path d="m256 57.2c-4.151 0-8.061 1.023-11.5 2.823 7.933 4.15 13.35 12.454 13.35 22.027 0 9.574-5.417 17.877-13.35 22.027 3.439 1.799 7.349 2.823 11.5 2.823 13.724 0 24.85-11.126 24.85-24.85s-11.126-24.85-24.85-24.85z" fill="#f9eae0"/></g></g><g><path d="m397.979 196.481c-.322-.461-.691-.872-1.093-1.239-21.677-24.09-49.572-42.736-81.609-53.253l9.013-14.452c9.002-13.491 13.761-29.218 13.761-45.486 0-45.05-36.647-81.856-81.692-82.049-21.128-.109-41.277 7.931-56.731 22.587-3.005 2.851-3.131 7.598-.281 10.604 2.85 3.005 7.597 3.13 10.603.281 12.566-11.92 28.911-18.474 46.055-18.474.096 0 .192.001.288.001 36.81.157 66.756 30.234 66.756 67.049 0 13.329-3.905 26.208-11.294 37.244-.045.067-.089.136-.131.204l-14.227 22.814c-.005.008-.01.016-.015.025l-33.688 54.02c-1.692 2.713-4.496 4.27-7.693 4.27s-6.002-1.557-7.693-4.27l-26.09-41.836c-.002-.003-.004-.007-.007-.011l-7.575-12.146c-.015-.024-.03-.048-.045-.072l-14.215-22.794c-.042-.068-.086-.137-.131-.204-7.589-11.336-11.493-24.571-11.287-38.274.137-9.118 2.102-17.95 5.839-26.249 1.701-3.777.018-8.218-3.759-9.919-3.777-1.7-8.217-.017-9.918 3.759-4.583 10.179-6.993 21.007-7.16 32.184-.251 16.723 4.504 32.884 13.751 46.741l9.012 14.452c-32.041 10.519-59.938 29.168-81.616 53.262-.397.363-.762.77-1.081 1.225-29.963 33.881-47.76 78.256-47.76 125.791 0 48.113 18.012 92.092 47.633 125.574.422.648.925 1.213 1.495 1.685 34.742 38.349 84.909 62.475 140.606 62.475 70.754 0 135.16-38.945 168.083-101.638 1.926-3.667.514-8.201-3.153-10.127-3.667-1.928-8.202-.514-10.127 3.152-5.867 11.171-12.83 21.513-20.699 30.946-14.197-7.295-30.52-13.327-48.252-17.929 7.686-26.202 12.051-55.777 12.661-86.638h76.058c-.673 15.936-3.486 31.606-8.398 46.683-1.283 3.938.869 8.171 4.808 9.454.772.252 1.555.371 2.325.371 3.159 0 6.098-2.012 7.129-5.179 6.17-18.938 9.299-38.731 9.299-58.829-.001-47.532-17.796-91.905-47.755-125.785zm-316.541 133.286h76.049c.61 30.861 4.975 60.437 12.661 86.639-17.687 4.591-33.972 10.604-48.144 17.874-23.914-28.56-38.882-64.844-40.566-104.513zm40.525-119.533c14.172 7.275 30.461 13.293 48.151 17.886-7.587 25.953-12.013 55.53-12.628 86.646h-76.057c1.68-39.182 16.459-75.682 40.534-104.532zm52.819 220.44c3.004 8.388 6.372 16.354 10.097 23.805 7.459 14.921 16.006 27.14 25.335 36.423-29.793-8.098-56.452-23.887-77.685-45.112 12.58-6.088 26.838-11.169 42.253-15.116zm14.73-3.354c18.621-3.743 38.558-5.921 58.988-6.351v75.299c-18.606-3.594-36.205-20.492-50.205-48.497-3.21-6.422-6.14-13.26-8.783-20.451zm73.988 68.949v-75.299c20.431.43 40.368 2.607 58.989 6.35-2.644 7.19-5.574 14.03-8.784 20.452-14 28.005-31.599 44.902-50.205 48.497zm-15-90.302c-22.048.448-43.609 2.86-63.734 7.032-7.435-25.016-11.668-53.448-12.277-83.233h76.011zm-76.005-91.2c.633-29.769 5.018-58.331 12.38-83.209 20.094 4.158 41.617 6.562 63.625 7.009v76.2zm91.005-76.2c22.008-.447 43.531-2.852 63.625-7.009 7.362 24.878 11.747 53.44 12.381 83.209h-76.006zm78.386-10.446c17.691-4.594 33.979-10.612 48.152-17.886 24.075 28.849 38.854 65.349 40.534 104.532h-76.058c-.615-31.116-5.041-60.693-12.628-86.646zm37.637-29.401c-12.583 6.094-26.846 11.18-42.269 15.132-8.133-22.772-18.883-42.067-31.726-56.231l1.556-2.495c27.968 8.53 52.637 23.745 72.439 43.594zm-103.102 5.574 20.801-33.355c9.916 11.969 18.438 27.809 25.186 46.291-18.598 3.733-38.507 5.906-58.908 6.335v-9.123c5.291-1.722 9.869-5.254 12.921-10.148zm-27.921 10.148v9.123c-20.401-.429-40.31-2.601-58.908-6.334 6.747-18.482 15.27-34.323 25.186-46.291l20.801 33.355c3.052 4.893 7.63 8.425 12.921 10.147zm-43.584-59.316 1.556 2.495c-12.843 14.164-23.593 33.46-31.726 56.232-15.423-3.952-29.686-9.037-42.269-15.132 19.802-19.849 44.471-35.065 72.439-43.595zm174.677 290.722c-21.533 21.568-48.347 37.116-77.832 45.079 9.339-9.286 17.895-21.514 25.361-36.448 3.725-7.451 7.093-15.417 10.097-23.806 15.465 3.96 29.765 9.06 42.374 15.175zm-52.358-32.85c-20.125-4.172-41.687-6.583-63.735-7.031v-76.201h76.011c-.609 29.785-4.841 58.216-12.276 83.232z"/><path d="m288.35 82.05c0-17.838-14.512-32.35-32.35-32.35s-32.35 14.512-32.35 32.35 14.512 32.351 32.35 32.351 32.35-14.513 32.35-32.351zm-49.7 0c0-9.566 7.783-17.35 17.35-17.35s17.35 7.783 17.35 17.35-7.783 17.351-17.35 17.351-17.35-7.784-17.35-17.351z"/></g></g></svg>